<svg width="563" height="274" viewBox="0 0 563 274" fill="none" xmlns="http://www.w3.org/2000/svg">
<circle cx="95" cy="226" r="48" fill="#D3E4F5"/>
<path d="M100.134 207H90.1135C88.6104 207 87.3807 208.184 87.3807 209.687V213.377H102.867V209.687C102.867 208.184 101.637 207 100.134 207H100.134Z" fill="#689CD3"/>
<path d="M81.7237 210.279C80.2207 210.279 79 211.482 79 212.985V243.292C79 244.804 80.2207 245.989 81.7237 245.989H107.613C109.116 245.989 110.336 244.804 110.336 243.301V212.985C110.336 211.482 109.116 210.279 107.613 210.279H104.689V214.287C104.689 214.788 104.279 215.198 103.778 215.198H86.4697C85.9687 215.198 85.5587 214.788 85.5587 214.287V210.279L81.7237 210.279ZM103.805 239.339H85.5308C85.0298 239.339 84.6198 238.929 84.6198 238.428C84.6198 237.927 85.0297 237.517 85.5308 237.517H103.805C104.306 237.517 104.716 237.927 104.716 238.428C104.716 238.929 104.306 239.339 103.805 239.339ZM103.805 233.873H85.5308C85.0298 233.873 84.6198 233.463 84.6198 232.962C84.6198 232.461 85.0297 232.051 85.5308 232.051H103.805C104.306 232.051 104.716 232.461 104.716 232.962C104.716 233.463 104.306 233.873 103.805 233.873ZM103.805 226.586C104.306 226.586 104.716 226.996 104.716 227.497C104.716 227.998 104.306 228.408 103.805 228.408H85.5308C85.0298 228.408 84.6198 227.998 84.6198 227.497C84.6198 226.996 85.0297 226.586 85.5308 226.586H103.805ZM92.8734 221.12C93.3744 221.12 93.7844 221.53 93.7844 222.031C93.7844 222.532 93.3744 222.942 92.8734 222.942H85.5311C85.0301 222.942 84.6201 222.532 84.6201 222.031C84.6201 221.53 85.0301 221.12 85.5311 221.12H92.8734Z" fill="#689CD3"/>
</svg>
